<?xml version="1.0" encoding="utf-8"?>
<!-- Generator: Adobe Illustrator 27.8.1, SVG Export Plug-In . SVG Version: 6.00 Build 0)  -->
<svg version="1.1" id="Layer_1" xmlns="http://www.w3.org/2000/svg" xmlns:xlink="http://www.w3.org/1999/xlink" x="0px" y="0px"
	 viewBox="0 0 49.1 9.36" style="enable-background:new 0 0 49.1 9.36;" xml:space="preserve">
<style type="text/css">
	.st0{fill:#FFFFFF;}
	.st1{fill:#68A7F4;}
</style>
<g>
	<path class="st0" d="M42.4-142.87v5.55c0,1.55,3.03,1.54,3.03,0v-5.55h1.73v5.55c-0.01,3.77-6.48,3.78-6.48,0v-5.55H42.4z"/>
	<path class="st0" d="M53.59-136.89c-0.09-0.54-0.23-1.57-0.24-1.75v-4.22h1.71v8.26h-1.83l-2.52-4.34l-0.5-1.12l-0.12,0.02
		l0.22,1.41v4.02h-1.73v-8.26h1.69l2.61,4.5l0.58,1.49L53.59-136.89z"/>
	<path class="st0" d="M56.28-142.87H58v8.26h-1.71V-142.87z"/>
	<path class="st0" d="M65.34-142.88v1.73h-2.37v6.54h-1.73v-6.54h-2.37v-1.73H65.34z"/>
	<path class="st0" d="M71.62-141.2h-3.87v1.62h3.56v1.67h-3.56v1.63h3.87v1.67h-5.6v-8.27h5.6V-141.2z"/>
	<path class="st0" d="M72.71-134.61v-8.26h3.03c1.63,0,3.15,0.82,3.15,2.68v2.94c0,1.85-1.52,2.64-3.15,2.64H72.71z M75.75-136.33
		c0.75,0,1.42-0.24,1.42-0.91v-2.94c0-0.68-0.68-0.96-1.42-0.96h-1.32v4.81H75.75z"/>
	<path class="st0" d="M46.67-128.34l-0.4,1.15l-1.13,2.65h-1.28l-1.14-2.66l-0.4-1.13h-0.12l0.19,1.6v3.28h-1.71v-8.26h1.8
		l2.01,4.75l2.03-4.75h1.8v8.26h-1.71v-3.29l0.21-1.6H46.67z"/>
	<path class="st0" d="M51.61-131.71h1.64l2.96,8.26h-1.8l-0.72-1.89h-2.46c-0.26,0.7-0.42,1.15-0.69,1.89h-1.83L51.61-131.71z
		 M52.36-129.89l-0.23,1.19l-0.47,1.78h1.59l-0.52-1.8l-0.23-1.18H52.36z"/>
	<path class="st0" d="M63.61-123.45h-2.11l-2.34-3.02h-0.61v3.02h-1.73v-8.26h3.25c1.66,0,2.9,0.76,2.95,2.64
		c0,1.52-0.69,2.25-1.88,2.48L63.61-123.45z M60.07-128.04c0.76,0,1.24-0.3,1.24-1.03c0-0.7-0.51-0.94-1.24-0.92h-1.53v1.95H60.07z"
		/>
	<path class="st0" d="M65.82-131.71v3.44l2.94-3.44h2.09l-3.55,4.05l3.55,4.21h-2.12l-2.58-3.07l-0.33,0.31v2.75h-1.71v-8.26H65.82z
		"/>
	<path class="st0" d="M76.87-130.04h-3.87v1.62h3.56v1.67h-3.56v1.63h3.87v1.67h-5.6v-8.27h5.6V-130.04z"/>
	<path class="st0" d="M83.84-131.72v1.73h-2.37v6.54h-1.73V-130h-2.37v-1.73H83.84z"/>
	<path class="st0" d="M85.31-125.9c0.75,1.19,2.92,1.21,2.99,0.06c0.04-0.71-0.73-0.87-1.59-0.99c-1.29-0.2-2.64-0.8-2.61-2.62
		c0.09-1.56,1.53-2.38,3.01-2.38c1.07,0,2.1,0.42,2.79,1.46l-1.41,0.94c-0.35-0.54-0.84-0.78-1.38-0.78c-0.65,0-1.22,0.24-1.26,0.82
		v0.01c0.01,0.68,0.7,0.77,1.42,0.92c1.43,0.27,2.83,0.79,2.75,2.74c-0.14,1.55-1.63,2.39-3.14,2.39c-1.07,0-2.17-0.52-2.87-1.57
		L85.31-125.9z"/>
</g>
<g>
	<g>
		<g>
			<path class="st1" d="M24.4,9.25h-2.37c-0.09,0-0.16-0.06-0.18-0.14l-1.51-5.49l-2.34,4.66c-0.3,0.59-0.9,0.97-1.57,0.97h-0.49
				c-0.38,0-0.72-0.21-0.9-0.54l0,0l-2.76-5.12l-0.61,2.45c-0.47,1.89-2.17,3.21-4.11,3.21H5.07C2.38,9.25,0,7.92,0,5.57V0.37
				c0-0.1,0.08-0.19,0.19-0.19h2.35c0.1,0,0.19,0.08,0.19,0.19v4.97c0,0.87,0.69,1.69,1.56,1.72l2.76-0.02
				c1.08,0,2.03-0.74,2.29-1.79l0.99-3.98C10.53,0.53,11.2,0,11.97,0h0c0.6,0,1.15,0.33,1.43,0.85l2.93,5.43l2.88-5.36
				C19.52,0.36,20.12,0,20.77,0h0c0.72,0,1.36,0.48,1.56,1.17L24.58,9C24.61,9.13,24.52,9.25,24.4,9.25z"/>
			<path class="st1" d="M9.86,0.15c-0.19,0.26-0.34,0.57-0.42,0.9L8.98,2.87H8.95V0.34c0-0.11,0.09-0.19,0.19-0.19H9.86z"/>
		</g>
	</g>
	<g>
		<path d="M30.53,2.48c0,0.28-0.03,0.52-0.08,0.72c-0.06,0.2-0.16,0.38-0.33,0.54c-0.29,0.3-0.67,0.44-1.15,0.44
			c-0.51,0-0.9-0.15-1.18-0.44c-0.17-0.18-0.29-0.36-0.34-0.55c-0.05-0.18-0.07-0.42-0.07-0.72V0h1.05v2.48
			c0,0.23,0.04,0.42,0.11,0.57c0.07,0.14,0.21,0.22,0.42,0.22c0.1,0,0.18-0.02,0.24-0.05c0.07-0.03,0.12-0.07,0.15-0.11
			c0.03-0.04,0.06-0.1,0.08-0.18c0.02-0.08,0.03-0.15,0.04-0.21c0-0.06,0.01-0.14,0.01-0.23V0h1.05V2.48z"/>
		<path d="M34.02,4.11H33.1V2.42c0-0.2-0.03-0.36-0.1-0.47c-0.07-0.11-0.19-0.17-0.38-0.17c-0.2,0-0.34,0.06-0.41,0.17
			s-0.11,0.27-0.11,0.47v1.68h-0.92V1.03h0.86v0.33h0.01c0.18-0.29,0.46-0.43,0.84-0.43c0.13,0,0.27,0.02,0.42,0.07
			c0.15,0.05,0.27,0.11,0.37,0.19c0.24,0.2,0.36,0.53,0.36,0.99V4.11z"/>
		<path d="M35.55,0.7h-0.92V0h0.92V0.7z M35.55,4.11h-0.92V1.03h0.92V4.11z"/>
		<path d="M37.74,1.73h-0.44v2.38h-0.92V1.73h-0.45v-0.7h0.45V0h0.92v1.03h0.44V1.73z"/>
		<path d="M41.08,2.6c0,0.09-0.01,0.17-0.02,0.24h-2.31c0.03,0.18,0.11,0.32,0.24,0.42c0.14,0.11,0.29,0.16,0.48,0.16
			c0.22,0,0.41-0.1,0.56-0.29h0.94c-0.14,0.32-0.34,0.58-0.6,0.77c-0.26,0.2-0.57,0.29-0.9,0.29c-0.45,0-0.84-0.16-1.15-0.48
			c-0.32-0.32-0.48-0.7-0.48-1.15s0.16-0.84,0.47-1.17c0.31-0.33,0.7-0.49,1.14-0.49c0.47,0,0.85,0.16,1.16,0.49
			C40.92,1.73,41.08,2.13,41.08,2.6z M40.16,2.22c-0.04-0.16-0.12-0.29-0.25-0.39c-0.13-0.09-0.28-0.14-0.45-0.14
			s-0.32,0.05-0.45,0.14c-0.13,0.09-0.21,0.22-0.25,0.39H40.16z"/>
		<path d="M44.74,4.11h-0.88V3.77h-0.01c-0.17,0.29-0.48,0.43-0.92,0.43c-0.46,0-0.84-0.16-1.12-0.47
			c-0.28-0.32-0.42-0.71-0.42-1.17c0-0.46,0.14-0.85,0.42-1.16c0.28-0.32,0.65-0.47,1.1-0.47c0.36,0,0.66,0.12,0.9,0.37V0h0.92V4.11
			z M43.87,2.55c0-0.22-0.07-0.41-0.22-0.55s-0.33-0.22-0.55-0.22c-0.22,0-0.41,0.07-0.56,0.22s-0.22,0.33-0.22,0.55
			c0,0.23,0.07,0.42,0.21,0.57c0.14,0.15,0.33,0.22,0.56,0.22c0.23,0,0.42-0.07,0.57-0.22C43.8,2.97,43.87,2.78,43.87,2.55z"/>
		<path d="M31.72,9.26h-0.97l0.03-3.07l-0.01-0.01L29.9,9.26h-0.69l-0.88-3.08l-0.01,0.01l0.03,3.07h-0.97V5.15h1.35l0.82,2.7h0.01
			l0.8-2.7h1.35V9.26z"/>
		<path d="M35.61,9.26h-0.92V8.92h-0.01c-0.08,0.15-0.2,0.26-0.37,0.33c-0.17,0.07-0.34,0.11-0.53,0.11c-0.46,0-0.84-0.16-1.12-0.47
			s-0.43-0.71-0.43-1.18c0-0.46,0.14-0.85,0.43-1.17c0.29-0.32,0.66-0.48,1.11-0.48c0.18,0,0.36,0.04,0.52,0.11
			c0.16,0.07,0.29,0.18,0.37,0.32h0.01V6.18h0.92V9.26z M34.69,7.71c0-0.23-0.07-0.41-0.22-0.56c-0.15-0.15-0.33-0.22-0.56-0.22
			c-0.22,0-0.4,0.08-0.55,0.23c-0.14,0.15-0.21,0.34-0.21,0.56c0,0.21,0.07,0.4,0.22,0.55c0.15,0.15,0.33,0.23,0.54,0.23
			c0.22,0,0.41-0.08,0.55-0.23C34.61,8.12,34.69,7.94,34.69,7.71z"/>
		<path d="M37.87,7c-0.24,0.01-0.42,0.05-0.54,0.12s-0.19,0.22-0.19,0.44v1.69h-0.92V6.18h0.87v0.33h0.01
			c0.15-0.29,0.4-0.43,0.77-0.43V7z"/>
		<path d="M41.22,6.18l-1.16,1.35l1.13,1.73h-1.04l-0.87-1.48h-0.01v1.48h-0.92V5.15h0.92v2.14h0.01l0.85-1.12H41.22z"/>
		<path d="M44.44,7.75c0,0.09-0.01,0.17-0.02,0.24h-2.31c0.03,0.18,0.11,0.32,0.24,0.42s0.29,0.16,0.48,0.16
			c0.22,0,0.41-0.1,0.56-0.29h0.94C44.2,8.61,44,8.87,43.73,9.06c-0.26,0.2-0.57,0.29-0.9,0.29c-0.45,0-0.84-0.16-1.15-0.48
			c-0.32-0.32-0.48-0.7-0.48-1.15s0.16-0.84,0.47-1.17c0.31-0.33,0.7-0.49,1.14-0.49c0.47,0,0.85,0.16,1.16,0.49
			C44.28,6.89,44.44,7.28,44.44,7.75z M43.52,7.38c-0.04-0.16-0.12-0.29-0.25-0.39c-0.13-0.09-0.28-0.14-0.45-0.14
			c-0.17,0-0.32,0.05-0.45,0.14c-0.13,0.09-0.21,0.22-0.25,0.39H43.52z"/>
		<path d="M46.45,6.88H46v2.38h-0.92V6.88h-0.45v-0.7h0.45V5.15H46v1.03h0.44V6.88z"/>
		<path d="M49.1,8.31c0,0.33-0.12,0.59-0.37,0.77c-0.25,0.18-0.54,0.28-0.88,0.28c-0.34,0-0.62-0.09-0.85-0.27
			c-0.23-0.18-0.37-0.43-0.4-0.75h0.92c0.01,0.09,0.05,0.16,0.12,0.21c0.06,0.05,0.14,0.07,0.23,0.07c0.08,0,0.15-0.02,0.22-0.06
			c0.07-0.04,0.1-0.1,0.1-0.17c0-0.03,0-0.06-0.01-0.08c-0.01-0.03-0.02-0.05-0.04-0.07c-0.02-0.02-0.04-0.04-0.05-0.06
			C48.06,8.16,48.03,8.14,48,8.13c-0.03-0.02-0.06-0.03-0.07-0.04s-0.04-0.02-0.08-0.03c-0.04-0.01-0.06-0.02-0.07-0.03
			c-0.18-0.06-0.31-0.11-0.4-0.14c-0.49-0.18-0.73-0.45-0.73-0.8c0-0.31,0.12-0.55,0.36-0.74c0.24-0.18,0.52-0.28,0.84-0.28
			c0.32,0,0.59,0.08,0.81,0.25c0.22,0.17,0.34,0.41,0.37,0.72h-0.9c0-0.16-0.1-0.23-0.29-0.23c-0.07,0-0.13,0.02-0.18,0.06
			c-0.05,0.04-0.08,0.09-0.08,0.15c0,0.07,0.04,0.14,0.11,0.19c0.08,0.05,0.17,0.09,0.29,0.12c0.11,0.03,0.24,0.07,0.37,0.11
			c0.14,0.05,0.26,0.1,0.37,0.16c0.11,0.06,0.21,0.15,0.29,0.27C49.07,8,49.1,8.14,49.1,8.31z"/>
	</g>
</g>
</svg>
