<svg width="776" height="210" viewBox="0 0 776 210" fill="none" xmlns="http://www.w3.org/2000/svg">
<g clip-path="url(#clip0_125_51)">
<path d="M59.7753 0.0592916C59.7753 0.0592916 92.6438 12.0025 0 47.8519V73.4755C0 73.4755 80.6808 44.871 80.6808 14.9834C80.6808 9.00189 74.6994 3.02042 59.7555 0.0395508L59.7753 0.0592916Z" fill="#09AAEE"/>
<path d="M59.7753 0.0591451C59.7753 0.0591451 95.6444 6.04062 95.6444 26.9462C95.6444 47.8517 35.8691 76.7918 0 93.7097V127.664C0 127.664 118.662 79.4568 117.576 36.7771C116.55 -2.94147 59.7753 0.0591451 59.7753 0.0591451Z" fill="#09AAEE"/>
<path d="M0 186.038C0 186.038 152.281 130.606 152.281 63.842C152.281 14.9834 92.6438 3.04016 92.6438 3.04016C92.6438 3.04016 131.494 15.0031 131.494 44.871C131.494 74.7389 98.6253 107.568 0 150.919" fill="#09AAEE"/>
<path d="M155.4 50.8525C155.4 50.8525 179.306 89.7025 140.456 125.572C101.606 161.421 0 204.338 0 204.338V209.233H45.8382C45.8382 209.233 170.344 173.364 170.344 101.646C170.344 68.7772 155.4 50.8525 155.4 50.8525Z" fill="#09AAEE"/>
<path d="M170.343 126.144C170.343 126.144 173.581 191.309 92.7619 209.253H76.1401C76.1401 209.253 159.881 182.011 170.343 126.144Z" fill="#09AAEE"/>
<path d="M310.484 99.6913C310.484 104.607 309.537 109.266 307.661 113.628C305.786 117.991 303.101 121.841 299.607 125.157C296.113 128.473 291.869 131.079 286.874 133.034C281.899 134.988 276.273 135.955 270.075 135.955C263.876 135.955 258.25 134.988 253.275 133.034C248.3 131.079 244.036 128.473 240.503 125.157C236.969 121.841 234.265 118.011 232.389 113.628C230.514 109.266 229.566 104.607 229.566 99.6913V65.6779H246.662V99.6913C246.662 102.613 247.136 105.377 248.083 108.002C249.031 110.628 250.452 112.937 252.347 114.951C254.262 116.965 256.671 118.564 259.632 119.709C262.593 120.873 266.047 121.465 270.075 121.465C274.102 121.465 277.556 120.873 280.478 119.709C283.4 118.544 285.788 116.945 287.703 114.951C289.618 112.937 291.039 110.648 291.967 108.002C292.915 105.377 293.389 102.613 293.389 99.6913V65.6779H310.484V99.6913Z" fill="black"/>
<path d="M398.982 136.567L347.735 87.0375V136.567H329.909V65.6779H347.735L398.982 115.208V65.6779H416.808V136.567H398.982Z" fill="black"/>
<path d="M436.233 136.567V65.6779H454.059V136.567H436.233Z" fill="black"/>
<path d="M523.152 80.977V136.567H505.425V80.977H473.524V65.6779H555.054V80.977H523.152Z" fill="black"/>
<path d="M574.479 136.567V65.6779H659.838V80.977H592.285V93.7296H651.744V107.489H592.285V121.248H662.464V136.547H574.459L574.479 136.567Z" fill="black"/>
<path d="M775.697 101.132C775.697 105.989 774.691 110.588 772.697 114.912C770.703 119.215 767.801 123.005 763.991 126.203C760.161 129.421 755.503 131.928 749.975 133.804C744.448 135.659 738.071 136.587 730.925 136.587H681.909V65.6976H730.925C738.071 65.6976 744.428 66.6255 749.975 68.4811C755.503 70.3367 760.201 72.8636 763.991 76.0813C767.821 79.2991 770.703 83.0498 772.697 87.3928C774.691 91.6963 775.697 96.3157 775.697 101.152V101.132ZM756.963 101.132C756.963 98.2898 756.43 95.6248 755.384 93.0782C754.338 90.5316 752.719 88.3601 750.528 86.5045C748.317 84.6488 745.593 83.1683 742.276 82.1023C738.96 81.0165 735.051 80.4835 730.511 80.4835H699.735V121.801H730.511C735.031 121.801 738.96 121.268 742.276 120.182C745.593 119.097 748.337 117.636 750.528 115.78C752.719 113.925 754.358 111.733 755.384 109.206C756.43 106.66 756.963 103.995 756.963 101.152V101.132Z" fill="black"/>
<path d="M295.738 209.233V167.304L275.997 209.233H263.225L243.563 167.245V209.233H230.416V156.92H252.249L269.66 195.415L287.072 156.92H308.826V209.233H295.758H295.738Z" fill="black"/>
<path d="M383.683 209.233L377.623 198.771H340.786L334.726 209.233H320.75L350.775 156.92H367.595L397.62 209.233H383.644H383.664H383.683ZM359.244 166.712L347.281 187.499H371.207L359.244 166.712Z" fill="black"/>
<path d="M473.702 174.095C473.702 176.384 473.386 178.418 472.794 180.155C472.202 181.892 471.412 183.412 470.445 184.676C469.477 185.939 468.372 187.005 467.168 187.854C465.944 188.703 464.72 189.374 463.456 189.867L472.557 209.214H458.502L450.131 191.348H422.711V209.214H409.564V156.9H456.567C457.969 156.9 459.646 157.157 461.621 157.65C463.575 158.144 465.47 159.032 467.266 160.315C469.043 161.579 470.583 163.316 471.827 165.547C473.07 167.777 473.702 170.62 473.702 174.114V174.095ZM460.555 174.095C460.555 172.851 460.337 171.844 459.883 171.074C459.429 170.304 458.877 169.712 458.245 169.278C457.593 168.863 456.942 168.567 456.271 168.429C455.6 168.291 455.067 168.212 454.652 168.212H422.751V180.096H454.652C454.948 180.096 455.422 180.017 456.073 179.839C456.725 179.661 457.376 179.365 458.047 178.911C458.719 178.457 459.311 177.845 459.804 177.075C460.298 176.306 460.555 175.318 460.555 174.134V174.095Z" fill="black"/>
<path d="M537.05 209.233L513.282 185.031L498.772 195.948V209.253H485.625V156.94H498.772V181.912L532.115 156.94H550.868L522.698 178.003L553.336 209.253H537.05V209.233Z" fill="black"/>
<path d="M565.279 209.233V156.92H628.272V168.212H578.426V177.628H622.291V187.795H578.426V197.961H630.207V209.253H565.259L565.279 209.233Z" fill="black"/>
<path d="M678.77 168.212V209.233H665.701V168.212H642.15V156.92H702.301V168.212H678.77Z" fill="black"/>
<path d="M775.717 190.815C775.717 193.322 775.045 195.671 773.703 197.882C772.361 200.093 770.288 202.028 767.504 203.686C764.721 205.344 761.247 206.628 757.061 207.575C752.896 208.503 747.941 208.977 742.216 208.977C739.295 208.977 736.294 208.72 733.215 208.246C730.569 207.871 727.687 207.259 724.509 206.45C721.35 205.64 718.271 204.456 715.29 202.916L719.672 192.829C722.318 194.171 724.963 195.217 727.628 195.967C730.293 196.718 732.701 197.251 734.873 197.586C737.419 197.961 739.847 198.178 742.216 198.238C749.402 198.238 754.772 197.586 758.305 196.283C761.839 194.98 763.596 193.283 763.596 191.17C763.596 189.828 763.043 188.841 761.937 188.229C760.832 187.597 759.134 187.242 756.825 187.163C756.292 187.124 755.305 187.064 753.824 186.985C752.363 186.906 750.567 186.827 748.454 186.729C746.342 186.63 743.993 186.531 741.407 186.433C738.821 186.334 736.136 186.215 733.353 186.077C730.569 185.939 728.023 185.564 725.674 184.932C723.344 184.301 721.331 183.412 719.633 182.228C717.935 181.043 716.593 179.622 715.645 177.905C714.678 176.207 714.204 174.193 714.204 171.884C714.204 169.574 714.954 167.402 716.474 165.369C717.994 163.336 720.146 161.559 722.949 160.039C725.752 158.519 729.168 157.335 733.175 156.486C737.182 155.637 741.664 155.183 746.599 155.183C749.52 155.183 752.501 155.4 755.522 155.834C758.108 156.209 760.99 156.762 764.208 157.493C767.406 158.223 770.505 159.269 773.545 160.651L769.735 170.581C768.255 169.949 766.557 169.357 764.701 168.784C762.826 168.212 760.871 167.718 758.838 167.264C756.805 166.83 754.732 166.494 752.64 166.257C750.547 166.021 748.533 165.902 746.619 165.902C743.736 165.902 741.071 166.04 738.604 166.297C736.136 166.554 733.984 166.948 732.168 167.481C730.332 167.995 728.911 168.666 727.884 169.436C726.858 170.206 726.325 171.055 726.325 172.022C726.325 173.265 726.858 174.193 727.904 174.825C728.97 175.457 730.53 175.812 732.583 175.891C734.893 175.99 738.13 176.148 742.315 176.325C746.48 176.523 751.416 176.74 757.14 176.977C760.023 177.115 762.609 177.49 764.879 178.122C767.169 178.753 769.103 179.642 770.702 180.787C772.321 181.932 773.545 183.353 774.414 185.031C775.263 186.709 775.697 188.644 775.697 190.776L775.717 190.815Z" fill="black"/>
</g>
<defs>
<clipPath id="clip0_125_51">
<rect width="775.717" height="209.233" fill="black"/>
</clipPath>
</defs>
</svg>
