<?xml version="1.0" encoding="utf-8"?>
<!-- Generator: Adobe Illustrator 27.8.1, SVG Export Plug-In . SVG Version: 6.00 Build 0)  -->
<svg version="1.1" id="Layer_1" xmlns="http://www.w3.org/2000/svg" xmlns:xlink="http://www.w3.org/1999/xlink" x="0px" y="0px"
	 viewBox="0 0 431.81 77.84" style="enable-background:new 0 0 431.81 77.84;" xml:space="preserve">
<style type="text/css">
	.st0{fill:#01D8FF;}
	.st1{fill:#092145;}
</style>
<g>
	<g>
		<g>
			<path class="st0" d="M204.44,77.48h-19.89c-0.71,0-1.34-0.48-1.53-1.16l-12.65-46l-19.61,39.07c-2.49,4.96-7.57,8.1-13.13,8.1
				h-4.15c-3.16,0-6.07-1.74-7.57-4.52v0l-23.1-42.91l-5.13,20.55c-3.95,15.8-18.15,26.89-34.44,26.89H42.52
				C19.95,77.48,0,66.38,0,46.66V3.13c0-0.87,0.71-1.58,1.58-1.58h19.68c0.87,0,1.58,0.71,1.58,1.58v41.61
				c0,7.31,5.8,14.19,13.11,14.43l23.17-0.14c9.09,0,17-6.18,19.21-15l8.33-33.36C88.23,4.4,93.86,0,100.33,0h0
				c5.01,0,9.61,2.75,11.98,7.16l24.52,45.54l24.16-44.88C163.57,3,168.6,0,174.07,0h0c6.05,0,11.38,4.01,13.05,9.83l18.84,65.63
				C206.25,76.47,205.49,77.48,204.44,77.48z"/>
			<path class="st0" d="M82.59,1.24c-1.6,2.22-2.81,4.76-3.51,7.55l-3.82,15.3h-0.23V2.85c0-0.89,0.72-1.61,1.61-1.61H82.59z"/>
		</g>
	</g>
	<g>
		<path class="st1" d="M242.12,0.05v22.11c0,6.18,12.08,6.13,12.08,0V0.05h6.88v22.11c-0.05,15.01-25.83,15.05-25.83,0V0.05H242.12z
			"/>
		<path class="st1" d="M286.67,23.83c-0.37-2.14-0.93-6.27-0.98-6.97V0.05h6.83v32.89h-7.29L275.2,15.66l-2-4.46l-0.46,0.09
			l0.88,5.62v16.03h-6.88V0.05h6.74l10.41,17.93l2.32,5.95L286.67,23.83z"/>
		<path class="st1" d="M297.4,0.05h6.83v32.89h-6.83V0.05z"/>
		<path class="st1" d="M333.5,0v6.88h-9.43v26.06h-6.88V6.88h-9.43V0H333.5z"/>
		<path class="st1" d="M358.49,6.69h-15.42v6.46h14.17v6.64h-14.17v6.5h15.42v6.64h-22.3V0h22.3V6.69z"/>
		<path class="st1" d="M362.86,32.94V0.05h12.08c6.5,0,12.54,3.25,12.54,10.69v11.71c0,7.39-6.04,10.5-12.54,10.5H362.86z
			 M374.94,26.06c2.97,0,5.67-0.98,5.67-3.62V10.73c0-2.69-2.69-3.81-5.67-3.81h-5.25v19.14H374.94z"/>
		<path class="st1" d="M259.12,57.91l-1.58,4.6l-4.51,10.55h-5.11l-4.55-10.59l-1.58-4.51h-0.46l0.74,6.37v13.05h-6.83V44.48h7.15
			l7.99,18.91l8.08-18.91h7.15v32.89h-6.83v-13.1l0.84-6.37H259.12z"/>
		<path class="st1" d="M278.77,44.48h6.55l11.8,32.89h-7.16l-2.88-7.53h-9.8c-1.02,2.79-1.67,4.6-2.74,7.53h-7.29L278.77,44.48z
			 M281.79,51.73l-0.93,4.74l-1.86,7.11h6.32l-2.09-7.16l-0.93-4.69H281.79z"/>
		<path class="st1" d="M326.58,77.37h-8.41l-9.34-12.03h-2.42v12.03h-6.88V44.48h12.96c6.6,0,11.57,3.02,11.75,10.5
			c0,6.04-2.74,8.97-7.48,9.9L326.58,77.37z M312.5,59.11c3.02,0,4.93-1.21,4.93-4.09c0-2.79-2.04-3.76-4.93-3.67h-6.09v7.76H312.5z
			"/>
		<path class="st1" d="M335.4,44.48v13.71l11.71-13.71h8.32L341.3,60.6l14.12,16.77h-8.46L336.7,65.15l-1.3,1.25v10.96h-6.83V44.48
			H335.4z"/>
		<path class="st1" d="M379.4,51.12h-15.42v6.46h14.17v6.64h-14.17v6.5h15.42v6.64h-22.3V44.43h22.3V51.12z"/>
		<path class="st1" d="M407.18,44.43v6.88h-9.43v26.06h-6.88V51.31h-9.43v-6.88H407.18z"/>
		<path class="st1" d="M413.03,67.62c2.97,4.74,11.61,4.83,11.89,0.23c0.14-2.83-2.93-3.48-6.32-3.95
			c-5.16-0.79-10.5-3.21-10.41-10.45c0.37-6.23,6.09-9.48,11.99-9.48c4.27,0,8.36,1.67,11.1,5.81l-5.62,3.76
			c-1.39-2.14-3.34-3.11-5.48-3.11c-2.6,0-4.88,0.98-5.02,3.25v0.05c0.05,2.69,2.79,3.07,5.67,3.67
			c5.71,1.07,11.29,3.16,10.96,10.92c-0.56,6.18-6.5,9.52-12.5,9.52c-4.27,0-8.64-2.09-11.43-6.27L413.03,67.62z"/>
	</g>
</g>
</svg>
